<svg xmlns="http://www.w3.org/2000/svg" viewBox="0 0 874.65 93"><defs><style>.cls-1{fill:#bc591c;}</style></defs><title>Zasób 4</title><g id="Warstwa_2" data-name="Warstwa 2"><g id="Warstwa_1-2" data-name="Warstwa 1"><path class="cls-1" d="M91.3,0l13.43,45.94,6.1,20.35,5.48,18.44.74,2.35H79.56l-11.8-43.6L42.27,81.77,16.15,45.37q-3.79,13.34-8.26,32.7-1.6,7.4-2.32,8.79a2.9,2.9,0,0,1-2.86,1.39C.9,88.25,0,87.63,0,86.4a58.89,58.89,0,0,1,1.73-6.23L5.56,67l6.66-22.69L25.25,0,59,48.94Z"/><path class="cls-1" d="M172.46,50.46q12.1-18.42,17.62-28a38.47,38.47,0,0,1,2.46-3.83,1.77,1.77,0,0,1,1.42-.56,3.17,3.17,0,0,1,2.21.92,2.82,2.82,0,0,1,1,2.1,3.8,3.8,0,0,1-1,2.22q-8.88,12.09-22.5,32.82L162.76,72.72A88.43,88.43,0,0,1,153.51,85a22,22,0,0,1-6.45,4.31A17.6,17.6,0,0,1,139.87,91a10.67,10.67,0,0,1-5.58-1.32,3.91,3.91,0,0,1-2.2-3.37,2.94,2.94,0,0,1,1-2.22,3.42,3.42,0,0,1,2.41-.92,12.52,12.52,0,0,1,4.07,1.42,8.16,8.16,0,0,0,3.39.92,9.21,9.21,0,0,0,5.27-1.69,25,25,0,0,0,5.46-5.58L146.4,66.79Q122.91,30.28,115,19.73H154.2a170,170,0,0,0,8.51,16.17A154.57,154.57,0,0,0,172.46,50.46Z"/><path class="cls-1" d="M332.69,47.12Q342.65,23.29,349,6a13.86,13.86,0,0,1,1.67-3.54,2.64,2.64,0,0,1,2.1-.71,3.64,3.64,0,0,1,2.13.61,1.78,1.78,0,0,1,.9,1.48q0,.81-4.81,11.72l-3.57,8L316.82,93,301.59,64.35,289.62,43l-9.43,17.25L265.82,87.21l-3,5.79L251,63.64,240.46,38.17Q232.69,19,225.46,3.7l-.37-.8h38.58L269,16.46Q277.14,36.8,281.88,47l11.43-21,4.2-7.89,2.84-5.3,4.75-8.88c.75-1.43,1.45-2.73,2.1-3.88l9.14,17.8Q324.23,33,332.69,47.12Z"/><path class="cls-1" d="M379.33,55.38V74.5q0,5.55.67,7c.87,1.89,2.9,2.83,6.11,2.83a28.68,28.68,0,0,0,14.15-3.91,38.2,38.2,0,0,0,12.12-10.83,18.33,18.33,0,0,1,2.41-2.89,2.44,2.44,0,0,1,1.6-.62,2.23,2.23,0,0,1,1.73.77,2.83,2.83,0,0,1,.67,1.94c0,1.73-1.37,4.05-4.13,7a41.86,41.86,0,0,1-13.47,9.13,39.15,39.15,0,0,1-15.7,3.51A34.7,34.7,0,0,1,353.3,66.85a34.39,34.39,0,0,1-2.77-13.32A35.85,35.85,0,0,1,353,40.67a35,35,0,0,1,53.35-15.88q14.43,10.49,14.31,30.4H406.28l-18.5.07Zm15.78-4.07v-18c-.08-3.86-.16-6.16-.24-6.92a4.3,4.3,0,0,0-.87-2.13q-1.72-2.4-7-2.4c-3.62,0-5.88.93-6.78,2.77-.58,1.11-.86,4-.86,8.68v18l7.52.25Z"/><path class="cls-1" d="M430.33,2.9H461.9l-.25,23.31a35.06,35.06,0,0,1,9.72-6.11,27.7,27.7,0,0,1,10.45-2q12.09,0,21.77,8.82,10.92,9.93,10.92,25.84,0,16.4-11.23,27.07a29.52,29.52,0,0,1-20.9,8.63,25.84,25.84,0,0,1-10.8-2.16,33.63,33.63,0,0,1-9.74-7.21v8H430.33V84.3l.18-29.91-.06-21.34Zm31.32,28.37V73.32a80,80,0,0,0,6.54,6.36q4.94,4,8.94,4A3.42,3.42,0,0,0,480.71,81a31,31,0,0,0,.43-6.23V33.36l.06-2.71c0-3.12-.27-5.25-.83-6.38a3.19,3.19,0,0,0-3.17-1.7,14.52,14.52,0,0,0-6.85,2.16A48.43,48.43,0,0,0,461.65,31.27Z"/><path class="cls-1" d="M593.69,72v1.72l.06,11.85v1.54H556.13l.06-3.77L556.5,40l-.24-20.6-.07-14-.06-2.47h28.18q17.28,0,26.18,1.48a40.08,40.08,0,0,1,15,5.3A34,34,0,0,1,638,23.93a33,33,0,0,1,3.39,14.61,34.4,34.4,0,0,1-3.82,15.79,32.74,32.74,0,0,1-12.92,13.85A38,38,0,0,1,605.34,73,91.52,91.52,0,0,1,593.69,72Zm.06-64.88v4.13l-.25,41.2.13,15.35a50.19,50.19,0,0,0,12.64,1.3,32.13,32.13,0,0,0,13.2-2.78A29.43,29.43,0,0,0,630,58.46,30.29,30.29,0,0,0,630.07,19a29.53,29.53,0,0,0-13.38-9.06q-8.21-2.84-21.09-2.84Z"/><path class="cls-1" d="M693.1,46V38.48q-.06-7.83-.25-9.62a7.08,7.08,0,0,0-1.11-3.21q-2.22-3.45-10.38-3.45-12.6,0-19.45,7.89c-1.86,2.14-3.42,3.21-4.7,3.21a3.49,3.49,0,0,1-2.47-1,3,3,0,0,1-1-2.28q0-3.88,9.19-8,8.76-3.94,22.63-3.95,22.83,0,32.2,6.91a14,14,0,0,1,5.3,6.78q1.23,3.77,1.23,13.26V69.5a50.16,50.16,0,0,0,.4,10.21,23.78,23.78,0,0,0,2.93,7.37H693V80.6a49.22,49.22,0,0,1-11.26,5.86,32.76,32.76,0,0,1-11,2,26.5,26.5,0,0,1-16.34-5.36q-9.31-7-9.31-18.26a19.65,19.65,0,0,1,7.53-16q8.77-7.22,21.74-7.22a41.08,41.08,0,0,1,9.38,1A46.91,46.91,0,0,1,693.1,46Zm0,4.45q-7.77-3.9-12-3.89-3.57,0-4.68,2.84c-.41,1-.62,4-.62,8.94V73.08a40,40,0,0,0,.31,5.92q.61,2.84,4.19,2.83a14.64,14.64,0,0,0,6.32-1.69A25.07,25.07,0,0,0,693,75.67Z"/><path class="cls-1" d="M786.16,22.39A26.75,26.75,0,0,1,795,29.23a20.2,20.2,0,0,1,4.75,13.26,20.41,20.41,0,0,1-2.72,10.18,23.7,23.7,0,0,1-7.58,8.07q-9,6.1-21.71,6.11a51.84,51.84,0,0,1-10.79-1,36.3,36.3,0,0,1-9-3.14c-1.93,1.31-2.89,2.65-2.89,4,0,1.61,1.09,2.55,3.26,2.84,4.73.62,8,.8,9.75.56l.37-.07h18.44l.92-.06q9.25-.56,13.32,3.09a8.93,8.93,0,0,1,.93,12.7,12.41,12.41,0,0,1-10,4.38c-.78,0-1.77,0-3-.12a5.11,5.11,0,0,0,1-2.41c0-1.27-1.15-1.91-3.45-1.91A118,118,0,0,0,764.27,87a81.06,81.06,0,0,1-10.92.93A23.09,23.09,0,0,1,741.57,85,12.17,12.17,0,0,1,737,80.42a12.44,12.44,0,0,1-1.67-6.29,12.81,12.81,0,0,1,2-7A26.58,26.58,0,0,1,744,60.44a19.35,19.35,0,0,1-6.79-7.25,20.21,20.21,0,0,1-2.4-9.71q0-12.46,12.52-19.86,9.38-5.55,22.75-5.55c2,0,4,.1,6.17.31,2.92.24,5,.37,6.35.37a7.43,7.43,0,0,0,7.09-4.32c.87-1.73,1.79-2.59,2.78-2.59a3,3,0,0,1,2,.77,2.43,2.43,0,0,1,.87,1.88q0,2.22-2.47,4.35A19.73,19.73,0,0,1,786.16,22.39Zm-24.24,6.78V55.26q0,4.68.74,5.79c.82,1.2,2.53,1.79,5.12,1.79,2.38,0,4-.56,4.78-1.69s1.2-3.37,1.2-6.7V29.29q0-4.18-1.2-5.61c-.8-.94-2.37-1.42-4.72-1.42s-3.91.48-4.72,1.42S761.92,26.46,761.92,29.17Z"/><path class="cls-1" d="M833.33,55.38V74.5q0,5.55.68,7c.87,1.89,2.9,2.83,6.11,2.83a28.71,28.71,0,0,0,14.15-3.91,38.2,38.2,0,0,0,12.12-10.83,19,19,0,0,1,2.4-2.89,2.49,2.49,0,0,1,1.61-.62,2.19,2.19,0,0,1,1.72.77,2.79,2.79,0,0,1,.68,1.94q0,2.59-4.13,7a41.86,41.86,0,0,1-13.47,9.13,39.15,39.15,0,0,1-15.7,3.51,34.67,34.67,0,0,1-32.19-21.58,34.4,34.4,0,0,1-2.78-13.32A35.86,35.86,0,0,1,807,40.67a35,35,0,0,1,53.35-15.88q14.43,10.49,14.3,30.4H860.28l-18.5.07Zm15.79-4.07v-18c-.08-3.86-.16-6.16-.25-6.92a4.2,4.2,0,0,0-.86-2.13q-1.72-2.4-7-2.4c-3.62,0-5.88.93-6.78,2.77q-.87,1.66-.87,8.68v18l7.53.25Z"/></g></g></svg>