<svg xmlns="http://www.w3.org/2000/svg" viewBox="0 0 194 194"><defs><style>.cls-1{opacity:0.43;}.cls-1,.cls-6,.cls-7{isolation:isolate;}.cls-2{fill:#0a7758;}.cls-3{opacity:0.81;}.cls-4{opacity:0.77;}.cls-5{opacity:0.87;}.cls-6{opacity:0.41;}.cls-7{opacity:0.42;}.cls-8{opacity:0.48;}</style></defs><title>logo</title><g id="Warstwa_2" data-name="Warstwa 2"><g id="Warstwa_1-2" data-name="Warstwa 1"><g class="cls-1"><path class="cls-2" d="M175,115.75a79.87,79.87,0,0,1-156.23,0Z"/></g><path class="cls-2" d="M66.85,40.9h-.34c-2.64.17-4.93,3.51-5.1,7.73-.17,4.4,1.93,8.27,4.75,8.44h.54c2.63-.17,4.92-3.51,5.1-7.73.15-4.56-2-8.27-5-8.44Zm15.29,9.49a3.49,3.49,0,0,0-1.41-.17h0c-2.46.17-4.92,2.81-6,6.32-1.41,4.22-.17,8.44,2.64,9.32A3.52,3.52,0,0,0,78.8,66c2.47-.17,4.93-2.81,6-6.32C86,55.49,84.78,51.27,82.14,50.39ZM69.48,66.74c-3.87-4.93-5.44-6.86-9.31-6.52s-5.1,2.47-8.1,7.91c-2.46,4.75-8.27,5.63-9.32,9.49a5.05,5.05,0,0,0-.17,2.29A5.58,5.58,0,0,0,48.73,85c3.88-.35,8.78-3.69,13.37-4.05s10,2.1,13.88,1.76a5.58,5.58,0,0,0,5.1-6.15,4.12,4.12,0,0,0-.71-2.1c-1.74-3.51-7.54-3.32-10.89-7.73ZM53.67,58.12h.54c2.81-.7,4.22-4.75,3.17-9.14-.88-4-3.69-7-6.32-6.86h-.54c-2.8.71-4.22,4.76-3.17,9.15.86,4.22,3.69,7.22,6.32,6.85ZM44.53,68.68c2.46-1.22,3-5.63.88-9.66-1.76-3.34-4.57-5.44-7-5.27a2.51,2.51,0,0,0-1.22.34c-2.47,1.23-3,5.64-.88,9.67,1.76,3.34,4.56,5.44,7,5.27A3.37,3.37,0,0,0,44.53,68.68Z"/><path class="cls-2" d="M129,42.31c-2.8.18-4.92,3.88-4.75,8.44.17,4.22,2.46,7.56,5.1,7.74h.53c2.81-.18,4.93-3.88,4.76-8.44-.17-4.22-2.47-7.56-5.1-7.74H129ZM111.21,61.12c1.05,3.51,3.68,6.15,6,6.32a4.07,4.07,0,0,0,1.42-.17c2.8-.88,3.87-5.1,2.63-9.32-1-3.51-3.51-6.15-6-6.32h0a4,4,0,0,0-1.41.17C111.21,52.68,110,56.9,111.21,61.12Zm15.12,7c-3.34,4.22-9.15,4-10.9,7.73a10,10,0,0,0-.71,2.1,5.56,5.56,0,0,0,5.1,6.15c3.87.34,9.32-2.1,13.88-1.76s9.49,3.69,13.37,4a5.66,5.66,0,0,0,6.14-5.1A10.44,10.44,0,0,0,153,79c-1-3.87-6.85-4.75-9.32-9.49-2.8-5.63-4.22-7.73-8.09-7.9s-5.42,1.58-9.3,6.51Zm16-8.61c2.64.17,5.44-2.64,6.32-6.86,1-4.39-.34-8.44-3.17-9.14H145c-2.64-.18-5.45,2.8-6.32,6.85-1,4.39.34,8.44,3.17,9.15Zm10.37,10.9c2.46.17,5.27-1.93,7-5.27,2.1-4.05,1.58-8.27-.88-9.66a3.36,3.36,0,0,0-1.23-.35c-2.46-.17-5.27,1.93-7,5.27-2.1,4.05-1.59,8.27.88,9.67A3.24,3.24,0,0,0,152.7,70.44Z"/><path class="cls-2" d="M142.56,125.64a4.43,4.43,0,0,0-2.1-2.29c-.54,0-1.05-.17-1.59-.17a6.16,6.16,0,0,0-5.44,3.87c-1.41,3-.7,6,1.59,6.86a5.27,5.27,0,0,0,1.58.34,7,7,0,0,0,5.63-3.51,7.38,7.38,0,0,0,.33-5.1Zm-30.59.52c-1-2.47-3.17-4.22-5.27-4.22a3.57,3.57,0,0,0-1.41.17,3.84,3.84,0,0,0-2.29,2.1,6.36,6.36,0,0,0,0,5.1,6.22,6.22,0,0,0,5.27,3.87,5,5,0,0,0,1.58-.17c2.48-.88,3.36-3.68,2.12-6.85Zm4.58,0h.54a5.22,5.22,0,0,0,3-1.22c1.41-1.23,1.75-3.35,1.58-5.45-.34-3.34-2.29-5.8-5.1-6H116a4.8,4.8,0,0,0-3.34,1.41,6,6,0,0,0-1.93,5.1C111.28,123.18,113.73,125.81,116.55,126.16Zm6,4.41c-6.68-.17-13.88,9-14.07,16.71a6.18,6.18,0,0,0,2.1,4.92,7.53,7.53,0,0,0,7.2.88,10.17,10.17,0,0,1,3.87-.88H122a8,8,0,0,1,3.87,1.22,5.29,5.29,0,0,0,2.64.71c2.1,0,3-.17,4.39-1.22a5.55,5.55,0,0,0,2.46-4.76C135.7,140.57,129.21,130.91,122.53,130.57Zm5.61-4h.54a6.53,6.53,0,0,0,6.15-5.8,6.27,6.27,0,0,0-1.42-5.27,5.42,5.42,0,0,0-3.17-1.59h-.7c-2.81,0-4.93,2.29-5.64,5.63a6.92,6.92,0,0,0,1.23,5.64,7.12,7.12,0,0,0,3,1.39Z"/><path class="cls-2" d="M52,117a5.82,5.82,0,0,0,.53,5.1,6.69,6.69,0,0,0,5.63,3.51,5.33,5.33,0,0,0,1.59-.34c2.29-1,3-3.88,1.58-6.85a6.34,6.34,0,0,0-5.44-3.88,3.44,3.44,0,0,0-1.41.34A3,3,0,0,0,52,117Zm30.58.52c-1.22,3-.34,6,2.1,6.68a5.1,5.1,0,0,0,1.59.17,6.22,6.22,0,0,0,5.27-3.87,5.75,5.75,0,0,0,0-5.1,3.79,3.79,0,0,0-2.29-2.1,4,4,0,0,0-1.41-.17,6.67,6.67,0,0,0-5.26,4.39Zm.88-6.32a6.08,6.08,0,0,0-1.93-5.1,4.77,4.77,0,0,0-3.34-1.41h-.53c-2.81.17-4.76,2.8-5.1,6-.17,2.1.17,4.22,1.58,5.45a5,5,0,0,0,3,1.22h.54A6.25,6.25,0,0,0,83.44,111.17ZM59,139.64a5.47,5.47,0,0,0,2.47,4.75,7.18,7.18,0,0,0,4.39,1.22,4.69,4.69,0,0,0,2.63-.7,9.75,9.75,0,0,1,3.88-1.22h.34a7.45,7.45,0,0,1,3.88.87,5.66,5.66,0,0,0,2.8.54,7,7,0,0,0,4.4-1.41,6.5,6.5,0,0,0,2.1-4.93c-.35-7.73-7.39-16.88-14.08-16.71S58.83,131.9,59,139.64Zm7.2-21.79a6.84,6.84,0,0,0,3-1.41,6.84,6.84,0,0,0,1.22-5.63c-.53-3.35-2.81-5.64-5.63-5.64h-.71a5.47,5.47,0,0,0-3.17,1.59A6.32,6.32,0,0,0,59.5,112c.53,3.17,3.17,5.8,6.15,5.8a5.43,5.43,0,0,0,.55,0Z"/><path class="cls-2" d="M148.55,145.1c0-.17-.22-.23-.45-.25a.57.57,0,0,0-.25.57.29.29,0,0,0,.27.25C148.42,145.48,148.59,145.29,148.55,145.1Z"/><g class="cls-3"><path class="cls-2" d="M97,2.43A94.57,94.57,0,1,0,191.57,97,94.67,94.67,0,0,0,97,2.43Zm0,188A93.45,93.45,0,1,1,190.45,97,93.54,93.54,0,0,1,97,190.45Z"/><path class="cls-2" d="M97,194a97,97,0,1,1,97-97A97.1,97.1,0,0,1,97,194ZM97,6a91,91,0,1,0,91,91A91.12,91.12,0,0,0,97,6Z"/></g><g class="cls-4"><path class="cls-2" d="M97,11.44A85.56,85.56,0,1,0,182.56,97,85.65,85.65,0,0,0,97,11.44Zm0,164.13A78.57,78.57,0,1,1,175.57,97,78.65,78.65,0,0,1,97,175.57Z"/></g><g class="cls-5"><path class="cls-2" d="M97,8.75A88.25,88.25,0,1,0,185.25,97,88.34,88.34,0,0,0,97,8.75Zm0,175.19a87,87,0,1,1,86.94-87A87,87,0,0,1,97,183.94Z"/></g><path class="cls-2" d="M96.92,144.79a.87.87,0,0,0,.08.14c0-.19.06-.38.08-.56A.49.49,0,0,0,96.92,144.79Z"/><g class="cls-6"><path class="cls-2" d="M19.69,115.73l-.52.33.29-.31A.86.86,0,0,0,19.69,115.73Z"/></g><g class="cls-7"><path class="cls-2" d="M19.48,115.75a.71.71,0,0,0,.21,0l-.52.33Z"/></g><g class="cls-7"><path class="cls-2" d="M177.56,117.18l-4.6-1.75c.21-.82.4-1.63.57-2.47Z"/></g><g id="_340_rocks_hill_landscape_nature_mountain" data-name="340, rocks, hill, landscape, nature, mountain" class="cls-8"><path class="cls-2" d="M162.68,102.88l-3.22,1.82a1,1,0,0,1-1.21-.16l-6.79-6.62-9.13,2.38a1,1,0,0,1-1.22-.68L138.74,91l-7.06-7.63-5,4.37,26.83,28H175Zm-125-13,1.34-.35a1,1,0,0,1,1,.25l3.75,3.67.17-7.76a1,1,0,0,1,.74-1l5.23-1.37-3.38-5.46ZM51,85.12l-5.08,1.32-.17,9.36a1,1,0,0,1-1.7.67L39,91.6l-3.13.82L18.79,115.75H34L57.26,95.28Zm32.41,32.41-.12-.1,0,0-4.69-3.76a1,1,0,0,1-.14-1.36,1,1,0,0,1,.77-.34h4.94l-7.48-6a1,1,0,0,1-.14-1.37,1,1,0,0,1,.77-.34h4.08l-5.27-4.2a1,1,0,0,1-.13-1.38,1,1,0,0,1,.76-.36h2.58l-5-5.43-4.94,5.43H72a1,1,0,0,1,1,1,.94.94,0,0,1-.44.8l-5.19,4.17h4.1A1,1,0,0,1,72,106L64.56,112H69.5a1,1,0,0,1,.56,1.78l-4.64,3.7-.12.1-4.87,3.89,11.65-.82a1,1,0,0,1,1.07.9v7h2.41v-6.94a1,1,0,0,1,1-1l11.7.82Zm-.1-33.46-2-7.29-22,19.38,0,0,0,0,0,0L37,115.75H64.39l2.33-1.87H61.77a1,1,0,0,1-.76-.36,1,1,0,0,1,.13-1.36l7.47-6H64.54a1,1,0,0,1-.76-.36.94.94,0,0,1,.13-1.35l5.27-4.22h-2a1.13,1.13,0,0,1-.66-.25,1,1,0,0,1-.08-1.38l7.26-7.92a1,1,0,0,1,1.41.08l7.12,7.8a.93.93,0,0,1,.29.69,1,1,0,0,1-1,1h-2l5.25,4.2a1,1,0,0,1-.61,1.73H80.08l7.41,5.92a1,1,0,0,1-.55,1.78H82l2.33,1.87h28.36l1.91-1.53H112a1,1,0,0,1-.76-.36,1,1,0,0,1,.13-1.36l3.69-2.94h-1a1,1,0,0,1-.76-.36.94.94,0,0,1,.13-1.35L119,103.4a1,1,0,0,1,1.32-.06l5.61,4.49a1,1,0,0,1-.61,1.73h-1L128,112.5a1,1,0,0,1,.38.77,1,1,0,0,1-1,1h-2.62l1.91,1.53h24.16L124.55,88.35l-14.2-14.84-7.47,1.95,5.25,8.86a1,1,0,0,1-.36,1.32l-6.09,3.44a1,1,0,0,1-1.26-.12l-6.78-6.62-9.13,2.38A1,1,0,0,1,83.27,84.07Zm-.34-8.76,2,7.31,8.73-2.27a1,1,0,0,1,1,.25l6.67,6.49,4.64-2.62-5.41-9.12a1,1,0,0,1,.37-1.32l.24-.1,7.7-2L98.76,61.43Zm30.78,42.1h0a.87.87,0,0,0-.14.12l-1,.8h3.29a1,1,0,0,1,1,1,.94.94,0,0,1-.44.8l-7,5.62,8.48-.59a1,1,0,0,1,1.07.89v5.31h1.47V126.1a1,1,0,0,1,1-1l8.56.59-7.11-5.67a1,1,0,0,1,.63-1.72h3.29l-1-.8-.12-.1L121.33,114a1,1,0,0,1-.14-1.35,1,1,0,0,1,.77-.36h2.61l-3.68-2.94a1,1,0,0,1-.14-1.38,1,1,0,0,1,.77-.36h1l-2.84-2.27-2.85,2.27h1a1,1,0,0,1,1,1,.94.94,0,0,1-.44.8l-3.61,2.91h2.62a1,1,0,0,1,1,1,1,1,0,0,1-.44.8Zm19.45-35.3,7.2,7.77a.91.91,0,0,1,.25.42l2.16,7.88,8.67-2.25a1,1,0,0,1,1,.23l6.65,6.49,2.17-1.22L138.36,77.52Z"/></g></g></g></svg>