<svg xmlns="http://www.w3.org/2000/svg" viewBox="0 0 275.19 62.23"><defs><style>.cls-1{fill:#5c5b5f;stroke:#0a7758;stroke-miterlimit:10;stroke-width:2px;}</style></defs><title>name</title><g id="Warstwa_2" data-name="Warstwa 2"><g id="Warstwa_1-2" data-name="Warstwa 1"><path class="cls-1" d="M32.05,21.08H30.37q.15-2.43.15-3.9c0-2.93-.6-5-1.82-6.13a6.44,6.44,0,0,0-4.6-1.73,13,13,0,0,0-7.7,3q-4,3-6.86,9.39A31.67,31.67,0,0,0,6.67,34.83q0,6.51,2.67,10A8.14,8.14,0,0,0,16,48.29q5.45,0,10-6.54a1.29,1.29,0,0,1,1-.66,1,1,0,0,1,.69.27A.83.83,0,0,1,28,42c0,.57-.69,1.67-2.08,3.31a16.89,16.89,0,0,1-5.22,4.1A13.41,13.41,0,0,1,14.47,51,12.89,12.89,0,0,1,2.75,43.62,18.91,18.91,0,0,1,1,35.17,28.87,28.87,0,0,1,4.57,21.58,28.45,28.45,0,0,1,13.5,11.13,18.58,18.58,0,0,1,24,7.45a16.58,16.58,0,0,1,3.64.41Q28.4,8,34.05,10A39.77,39.77,0,0,0,32.05,21.08Z"/><path class="cls-1" d="M53.22,21.92A19.78,19.78,0,0,1,48,22.7a28.24,28.24,0,0,1-2.9-.16c-1.47-.16-2.46-.25-3-.25a2.11,2.11,0,0,0-1.43.44,1.41,1.41,0,0,0-.5,1.12A1.06,1.06,0,0,0,41.34,25c.94.1,1.4.53,1.4,1.27a1.27,1.27,0,0,1-.43.95,1.38,1.38,0,0,1-1,.43,2.71,2.71,0,0,1-2.07-1.11,4.06,4.06,0,0,1-1-2.76,4.68,4.68,0,0,1,1.77-3.65,6.51,6.51,0,0,1,4.4-1.53,25,25,0,0,1,3.71.38,40.53,40.53,0,0,0,5.42.59,5.06,5.06,0,0,0,3.15-1.12,2.14,2.14,0,0,1,1.12-.5,1,1,0,0,1,.64.23.65.65,0,0,1,.27.46,1.06,1.06,0,0,1-.35.68,63.32,63.32,0,0,1-4.83,4.92L43.93,33.5q-4.24,4.05-7,6.54a27.49,27.49,0,0,1,2.78-.2,12.56,12.56,0,0,1,2.55.24,35.11,35.11,0,0,1,3.71,1.07,17.59,17.59,0,0,0,5.43,1.16,3,3,0,0,0,2-.61,2,2,0,0,0,.7-1.54,3.64,3.64,0,0,0-.5-1.5,3.74,3.74,0,0,1-.43-1.43A1.8,1.8,0,0,1,53.62,36a1.63,1.63,0,0,1,1.25-.53,1.87,1.87,0,0,1,1.51.73A2.84,2.84,0,0,1,57,38a6.71,6.71,0,0,1-1.28,3.68,8.7,8.7,0,0,1-3.21,3,10,10,0,0,1-4.77,1,26.1,26.1,0,0,1-6.83-1.35,22.16,22.16,0,0,0-5.48-1.1A4.24,4.24,0,0,0,33,44.37a2.26,2.26,0,0,1-1.4.71c-.77,0-1.15-.19-1.15-.57a2.22,2.22,0,0,1,.65-1.29q1.75-2.05,8.86-8.5,4.8-4.37,8.41-7.94Z"/><path class="cls-1" d="M70.33,13.88l5-1.9L73,20.7H79.5L79,22.92H72.54L69.82,33.36a29.75,29.75,0,0,0-1.29,6.55,1.75,1.75,0,0,0,.35,1.21,1.31,1.31,0,0,0,1,.38,7,7,0,0,0,3-1.16,38.32,38.32,0,0,0,5-3.46L79,38.32a80.29,80.29,0,0,1-9.13,6.3,9.1,9.1,0,0,1-3.71,1.15,2.22,2.22,0,0,1-1.83-.84,4.49,4.49,0,0,1-.67-2.75,30.92,30.92,0,0,1,1.19-6.86L68,22.92H63l.56-2.22h5.06Z"/><path class="cls-1" d="M98.36,37.07l1,1.37q-7.64,7.28-13.09,7.27a4,4,0,0,1-3.39-1.5,7.84,7.84,0,0,1-1.17-4.8A25.2,25.2,0,0,1,85.8,26.13q4.55-7.51,10.88-7.52a4.73,4.73,0,0,1,3.38,1.11,4,4,0,0,1,1.17,3,6.84,6.84,0,0,1-1.4,4,16.27,16.27,0,0,1-5,4.08q-1.82,1-7.73,3.71a19.44,19.44,0,0,0-.29,3.22,5,5,0,0,0,.71,3.08,2.45,2.45,0,0,0,2,.88,6.6,6.6,0,0,0,2.8-.72A40,40,0,0,0,98.36,37.07ZM87.45,32.55A24.53,24.53,0,0,0,95,27.72a5.28,5.28,0,0,0,1.72-3.59A3.09,3.09,0,0,0,96,22a2.34,2.34,0,0,0-1.83-.8,3.52,3.52,0,0,0-2.24.88,8.49,8.49,0,0,0-2.46,3.49A30.87,30.87,0,0,0,87.45,32.55Z"/><path class="cls-1" d="M109.49,44.9h-4.64L107,36.51q1.59-6.18,2.77-11.72a12,12,0,0,0,.28-1.72c0-.5-.23-.75-.68-.75A3.2,3.2,0,0,0,108,23a30.55,30.55,0,0,0-3.49,3.17l-1-1.09a24,24,0,0,1,6-4.82A10.91,10.91,0,0,1,114,18.61a1.37,1.37,0,0,1,.89.27.82.82,0,0,1,.32.67,13.51,13.51,0,0,1-.41,2.16l-1.35,5.61a39.71,39.71,0,0,1,7.12-8.51,5.36,5.36,0,0,1,3.19-1.69,2.14,2.14,0,0,1,1.56.61,1.91,1.91,0,0,1,.62,1.41,2,2,0,0,1-.6,1.44,9.49,9.49,0,0,1-3,1.4,13.58,13.58,0,0,0-3.76,1.87,17.87,17.87,0,0,0-3.17,3.34A17.91,17.91,0,0,0,113,31.1a63.69,63.69,0,0,0-2.09,7.75Z"/><path class="cls-1" d="M122.77,25l-1-1.47L124.08,22a44.19,44.19,0,0,1,4.74-3,3.34,3.34,0,0,1,1.43-.37,1.64,1.64,0,0,1,1.25.74,29.19,29.19,0,0,1,4.61,9.33A37.39,37.39,0,0,1,138,40.14c0,.48,0,1.21-.07,2.18q5.27-9.7,5.27-15.41a13,13,0,0,0-.53-3.15,14.67,14.67,0,0,1-.56-3.12,2,2,0,0,1,.58-1.49,1.91,1.91,0,0,1,1.45-.6,2.16,2.16,0,0,1,1.76.84,3.85,3.85,0,0,1,.67,2.4,35.71,35.71,0,0,1-1.84,10,64.49,64.49,0,0,1-5.78,12.9A51.69,51.69,0,0,1,131.73,55a22.73,22.73,0,0,1-6.29,4.8,13.38,13.38,0,0,1-5.76,1.45,5.23,5.23,0,0,1-3.1-.76,2.24,2.24,0,0,1-1-1.83,2,2,0,0,1,.81-1.6,3.3,3.3,0,0,1,2.18-.67,14.29,14.29,0,0,1,2.9.4,15.31,15.31,0,0,0,2.68.44,6.79,6.79,0,0,0,4-1.59,16.61,16.61,0,0,0,4.6-5.2,12.36,12.36,0,0,0,1.7-6.11,52.48,52.48,0,0,0-1.26-10.4,24.54,24.54,0,0,0-3.57-9.28A3.15,3.15,0,0,0,127.14,23Q125.61,23,122.77,25Z"/><path class="cls-1" d="M187.09,25.34l-1.37,5.74-2.06,9a6.08,6.08,0,0,0-.22,1.28q0,1,.75,1a2.64,2.64,0,0,0,1.27-.41,27.84,27.84,0,0,0,3.5-2.65c1.24-1,2-1.65,2.37-1.9l1.06,1.12a29.93,29.93,0,0,1-5.74,5c-2.23,1.5-4,2.26-5.46,2.26a2.05,2.05,0,0,1-1.6-.73,2.89,2.89,0,0,1-.64-2q0-2.49,1.93-10.36l1-3.84-6.6,4.41.65-2.81L182.54,26l1.74-7a63.49,63.49,0,0,1,2.93-9.87,14.24,14.24,0,0,1,5.44-5.89A14.28,14.28,0,0,1,200.27,1a3.14,3.14,0,0,1,2.09.63,2,2,0,0,1,.75,1.57,2.09,2.09,0,0,1-.78,1.6,3,3,0,0,1-2.09.69,16.18,16.18,0,0,1-2.68-.31,16,16,0,0,0-2.74-.25,3,3,0,0,0-2,.53,6.69,6.69,0,0,0-1.57,3q-.71,2.27-2.45,9.61l-1.07,4.48,9.46-6.3-.72,2.8Z"/><path class="cls-1" d="M216.86,18.15l2.06-.44-2.34,7.89q-1.41,4.71-2.65,10.85a28.6,28.6,0,0,0-.69,4.3c0,.64.26,1,.78,1a3.74,3.74,0,0,0,1.59-.66,20,20,0,0,0,3.71-2.87l1,1.22q-3.56,3.24-4.55,3.93a16.86,16.86,0,0,1-3.81,2,6.64,6.64,0,0,1-2.3.44,1.8,1.8,0,0,1-1.22-.37,1.43,1.43,0,0,1-.4-1.1,4.49,4.49,0,0,1,.25-1.27l1.24-4.24a26.17,26.17,0,0,1-6.39,5.51A8,8,0,0,1,199,45.77a3.27,3.27,0,0,1-2.77-1.28A7.21,7.21,0,0,1,194.88,40a18.81,18.81,0,0,1,1.76-7.36,27.38,27.38,0,0,1,4.72-7.35,20.12,20.12,0,0,1,6.24-4.87,15.29,15.29,0,0,1,6.48-1.18,17.53,17.53,0,0,1,2,.12ZM213,22.92a14.61,14.61,0,0,0-2.83-.35,8,8,0,0,0-4.9,1.55,13.91,13.91,0,0,0-3.88,5.55,19.33,19.33,0,0,0-1.79,8,5.16,5.16,0,0,0,.71,3.06,2.27,2.27,0,0,0,1.87.93q2.16,0,4.62-2.32a13.84,13.84,0,0,0,3.62-6.69Z"/><path class="cls-1" d="M222.88,26.41l-1.22-1.25a21.92,21.92,0,0,1,5.64-5,10.12,10.12,0,0,1,4.87-1.62,1.83,1.83,0,0,1,1.23.39,1.43,1.43,0,0,1,.45,1.14,9.18,9.18,0,0,1-.2,1.85c-.14.64-.56,2.14-1.27,4.51a52.44,52.44,0,0,1,6.52-5.89,10.06,10.06,0,0,1,5.36-1.91,3.22,3.22,0,0,1,2.68,1.5A7.67,7.67,0,0,1,248,24.63,24.75,24.75,0,0,1,243.33,39c-3.14,4.53-6.6,6.8-10.41,6.8a9.33,9.33,0,0,1-4.48-1.22l-2.67,10.29a6.38,6.38,0,0,0-.24,1.53A1.75,1.75,0,0,0,226.4,58,16.94,16.94,0,0,0,232,59.3l-.4,1.56q-5-.4-7.89-.41c-2,0-4.53.14-7.67.41l.4-1.56A5.67,5.67,0,0,0,219.93,58a8,8,0,0,0,1.73-3.77l5.64-23.67a74.76,74.76,0,0,0,1.59-7.35q0-.81-.78-.81C227.2,22.39,225.45,23.73,222.88,26.41Zm6.31,14.71a7.16,7.16,0,0,0,5.05,2.47q3.73,0,6.55-5.83a26,26,0,0,0,2.82-11.38,4,4,0,0,0-.8-2.7,2.67,2.67,0,0,0-2.13-.92,5.71,5.71,0,0,0-3.36,1.47,20.41,20.41,0,0,0-4.41,4.52,18.69,18.69,0,0,0-2.06,5.61Z"/><path class="cls-1" d="M250.4,25l-1-1.47,2.3-1.56a44.19,44.19,0,0,1,4.74-3,3.34,3.34,0,0,1,1.44-.37,1.64,1.64,0,0,1,1.24.74,29.4,29.4,0,0,1,4.62,9.33,37.68,37.68,0,0,1,1.87,11.39c0,.48,0,1.21-.06,2.18q5.26-9.7,5.26-15.41a12.48,12.48,0,0,0-.53-3.15,14.67,14.67,0,0,1-.56-3.12,2,2,0,0,1,.58-1.49,1.92,1.92,0,0,1,1.45-.6,2.14,2.14,0,0,1,1.76.84,3.79,3.79,0,0,1,.67,2.4,35.36,35.36,0,0,1-1.84,10,64.49,64.49,0,0,1-5.78,12.9A52.13,52.13,0,0,1,259.37,55a22.76,22.76,0,0,1-6.3,4.8,13.34,13.34,0,0,1-5.75,1.45,5.21,5.21,0,0,1-3.1-.76,2.23,2.23,0,0,1-1.05-1.83A2,2,0,0,1,244,57a3.3,3.3,0,0,1,2.18-.67,14.2,14.2,0,0,1,2.9.4,15.46,15.46,0,0,0,2.68.44,6.84,6.84,0,0,0,4-1.59,16.71,16.71,0,0,0,4.59-5.2,12.26,12.26,0,0,0,1.7-6.11,52.48,52.48,0,0,0-1.26-10.4,24.54,24.54,0,0,0-3.57-9.28A3.15,3.15,0,0,0,254.77,23Q253.24,23,250.4,25Z"/></g></g></svg>